<?xml version="1.0" encoding="UTF-8"?>
<svg id="Lag_1" data-name="Lag 1" xmlns="http://www.w3.org/2000/svg" viewBox="0 0 18 18">
  <defs>
    <style>
      .cls-1 {
        fill: #e66151;
      }
    </style>
  </defs>
  <path class="cls-1" d="m5,0C2.24,0,0,2.24,0,5v8c0,2.76,2.24,5,5,5h8c2.76,0,5-2.24,5-5V5c0-2.76-2.24-5-5-5H5Zm0,2h8c1.65,0,3,1.35,3,3v8c0,1.65-1.35,3-3,3H5c-1.65,0-3-1.35-3-3V5c0-1.65,1.35-3,3-3Zm9,1c-.55,0-1,.45-1,1s.45,1,1,1,1-.45,1-1-.45-1-1-1Zm-5,1c-2.76,0-5,2.24-5,5s2.24,5,5,5,5-2.24,5-5-2.24-5-5-5Zm0,2c1.65,0,3,1.35,3,3s-1.35,3-3,3-3-1.35-3-3,1.35-3,3-3Z"/>
</svg>