<svg width="137" height="185" viewBox="0 0 137 185" fill="none" xmlns="http://www.w3.org/2000/svg">
<path d="M226.164 176.247L132.202 176.395C122.107 176.395 111.853 176.848 101.74 176.247C95.5631 175.881 89.2278 174.623 83.7842 171.387C81.1093 169.794 78.886 168.003 77.4899 165.072C76.346 162.667 75.7477 160.002 75.3899 157.349C74.4044 150.079 75.0027 142.257 75.0673 134.937C75.1611 124.643 75.2491 114.348 75.343 104.053C75.3606 101.983 75.4251 99.7516 76.5983 98.0905C77.4665 96.851 78.8215 96.1196 80.1238 95.4254C88.2716 91.0745 93.1111 85.0563 95.8975 75.8027C97.8391 69.3569 98.8246 62.3036 96.836 55.8764C96.5486 54.9529 96.1849 54.017 95.5279 53.3352C94.865 52.6534 93.9734 52.294 93.0994 51.9841C83.2679 48.507 72.6153 49.2694 62.25 49.635C57.1114 49.8148 51.8027 49.9263 47.1157 52.17C49.3507 53.2856 51.8437 53.6823 54.3016 53.9674C66.7493 55.4239 79.3494 54.55 91.7795 52.9138C93.5862 52.6782 95.5338 52.3497 96.795 50.9614C97.0707 50.6515 97.3229 50.2177 97.1645 49.821C97.0472 49.5235 96.748 49.3685 96.4665 49.257C95.5338 48.8789 94.5365 48.7239 93.5452 48.5752C81.1445 46.7654 68.5501 47.0939 56.0555 47.9616C53.3865 48.1475 50.7116 48.3583 48.0719 48.8045C45.9367 49.164 42.9743 49.0029 42.6517 51.9531C42.5402 52.9819 42.7749 54.0108 42.9391 55.0334C43.4084 57.9155 43.3204 60.8719 43.7428 63.7601C44.5523 69.3569 47.2096 74.464 50.1661 79.193C52.9524 83.6369 56.167 87.9817 60.5548 90.6158C65.928 93.8387 72.3454 94.0681 78.3464 93.3863C83.8956 92.7541 87.8669 87.616 91.7209 83.7919C96.3198 79.2302 98.9302 72.8153 99.9626 66.3199C101.077 59.3038 100.508 52.1204 99.6752 45.061C98.9067 38.5345 97.9212 32.0453 96.7187 25.5932C95.6863 20.0337 94.4896 14.5051 93.1346 9.01994C92.8237 7.76176 92.677 5.85899 92.0494 4.74956C91.3454 3.50377 90.9114 4.0182 89.4859 4.35909C87.0691 4.9293 84.6347 5.42514 82.1827 5.828C72.3278 7.46426 62.0623 7.85473 52.2661 5.59868C58.3433 4.23513 64.5202 3.57815 70.7264 3.36122C73.8413 3.24966 76.962 3.23726 80.0827 3.27445C81.6958 3.29304 83.309 3.32403 84.9222 3.36742C85.6789 3.38601 91.1225 3.70831 91.6563 4.19794C89.1046 1.83653 81.2676 1.46465 78.0355 1.23533C74.1228 0.956421 70.1867 0.925431 66.2683 1.14236C62.6607 1.34069 59.0589 1.75595 55.4924 2.36955C52.9524 2.8096 48.7054 2.60507 47.9487 5.76602C45.1976 17.2694 43.0213 28.9897 41.9712 40.8154C41.0444 51.2465 39.8947 62.4896 43.5081 72.5178C46.6406 81.195 53.1343 88.0685 60.238 93.5412C62.9364 95.6238 65.8752 97.6877 67.33 100.867C68.3976 103.191 68.5443 105.857 68.6733 108.441C69.0781 116.498 69.7175 124.599 69.606 132.644C69.4946 140.689 69.1426 149.409 68.949 157.795C68.8728 161.142 68.4445 164.594 66.8138 167.458C65.2652 170.179 62.7662 172.137 60.1793 173.743C59.4285 174.207 58.6424 174.66 57.7801 174.79C56.9178 174.92 55.9558 174.678 55.4161 173.953C52.7178 170.359 63.4467 167.476 65.2593 167.154C69.7703 166.348 74.3575 166.46 78.9154 166.46C84.5995 166.46 90.36 167.886 95.5983 170.148C96.9709 170.743 98.4374 171.53 98.9771 172.993C99.4347 174.226 99.0768 175.676 98.3318 176.742C97.5869 177.808 96.5134 178.558 95.4106 179.203C89.0166 182.94 81.4554 183.647 74.1522 183.684C67.0074 183.715 59.6925 183.139 53.1401 180.12C51.744 179.476 50.3655 178.707 49.2862 177.573C46.5937 174.734 47.3504 172.057 50.3948 170.383C51.3451 169.863 53.891 168.53 54.6184 168.53C51.6854 168.53 48.1423 170.507 45.4146 171.48C40.7452 173.141 36.2402 174.431 31.342 175.137C20.9768 176.631 10.4825 176.42 0.046875 176.296" stroke="white" stroke-width="2" stroke-miterlimit="10"/>
</svg>
