<svg width="59" height="211" viewBox="0 0 59 211" fill="none" xmlns="http://www.w3.org/2000/svg">
<path d="M2.80056 203.847C3.28338 204.852 2.05777 206.29 1.9315 204.302C1.80522 202.315 1.99835 200.247 2.03549 198.252C2.10234 194.219 2.1692 190.179 2.23605 186.146C2.36976 178.166 2.50345 170.186 2.63715 162.207C2.94913 143.862 3.25367 125.518 3.56564 107.173C3.5805 106.162 3.65478 105.012 4.44957 104.355C5.0958 103.812 6.03171 103.769 6.89335 103.769C22.8262 103.61 38.7591 103.444 54.692 103.285C55.628 103.278 56.6679 103.314 57.3289 103.957C57.9826 104.6 58.0123 105.612 57.9975 106.516C57.6632 126.501 57.3141 146.486 56.9501 166.471C56.9353 167.194 56.9056 167.975 56.445 168.546C56.0068 169.095 55.264 169.312 54.5732 169.5C39.2122 173.598 22.8634 174.147 7.24989 171.09C5.27407 170.7 3.12739 170.143 1.97607 168.538C0.980725 167.158 0.973297 165.337 1.01044 163.652C1.51554 138.767 2.02806 113.881 2.53316 88.9952C2.64458 83.6755 2.81542 78.1317 5.40034 73.4408C8.82461 67.232 16.0668 63.365 18.4289 56.7081C19.3648 54.0699 19.4317 51.2221 19.4911 48.4249C19.7065 38.1902 19.9219 27.9627 20.1373 17.7352C20.1671 16.2101 20.2933 14.4826 21.5041 13.5069C22.4549 12.7479 23.7845 12.6901 25.0175 12.6684C29.14 12.5961 33.2699 12.5311 37.3924 12.4588C39.1008 12.4299 41.0098 12.3215 42.1611 11.0927C43.6913 9.47368 42.9114 6.66202 41.1287 5.3104C39.346 3.95877 36.9467 3.71303 34.6887 3.66966C32.0369 3.61906 29.3777 3.77808 26.7556 4.13947C24.5941 4.43582 22.3509 4.92732 20.687 6.30062C19.0232 7.67393 18.1689 10.1892 19.3203 11.9962C21.0584 9.50259 19.0009 5.62842 20.9618 3.30103C21.9498 2.13011 23.6136 1.79763 25.1512 1.53742C30.789 0.583337 38.0683 0.388184 40.579 5.3899C41.6635 7.56551 41.4332 10.1097 41.2029 12.5166C40.0219 25.0643 39.7545 37.6915 40.4081 50.2753C40.5938 53.8892 40.8761 57.5827 42.384 60.8859C44.9169 66.4441 50.5398 70.1521 53.3996 75.5513C56.3262 81.0734 56.0142 87.6075 55.7022 93.809C54.2018 123.66 54.2612 153.584 55.8731 183.435C56.1033 187.656 56.3559 191.935 55.4868 196.084C54.6178 200.226 52.4637 204.295 48.8165 206.601C45.3106 208.82 40.9281 209.152 36.7462 209.333C28.6497 209.687 20.5013 209.723 12.4866 208.559C10.3102 208.249 5.3632 207.88 4.41243 205.957C2.31032 201.707 15.2646 200.948 15.2646 200.948C17.1018 200.875 21.903 201.04 26.4105 202.287" stroke="white" stroke-width="2" stroke-miterlimit="10"/>
</svg>
