<svg width="360" height="287" viewBox="0 0 360 287" fill="none" xmlns="http://www.w3.org/2000/svg">
<path d="M1 279.584C1 279.584 56.5988 280.992 70.6183 279.584C89.4545 277.69 107.576 270.075 126.485 268.851C131.854 268.502 137.256 268.696 142.576 269.687C144.923 270.124 156.742 270.707 154.443 276.418C153.403 279.001 147.994 279.497 145.614 279.914C136.849 281.478 127.939 281.429 119.085 280.953C114.512 280.711 109.72 280.264 105.886 277.282C101.898 274.184 99.5426 268.715 98.5923 263.15C97.642 257.575 97.9181 251.825 98.1699 246.153C99.9325 206.039 99.9975 165.828 98.3568 125.715C98.0156 117.381 97.6745 108.601 100.875 101.181C104.002 93.9251 110.151 88.9425 112.92 81.4734C114.569 77.0347 114.878 72.0715 115.081 67.2151C115.796 50.3052 115.503 33.3371 114.212 16.4758C113.96 13.2415 113.708 9.82259 114.894 6.89906C117.64 0.177853 125.6 0.440097 131.765 1.72218C133.446 2.07184 135.266 2.51862 136.346 4.09208C138.49 7.21958 136.24 12.4256 138.141 15.7765C139.4 13.3483 138.466 9.96828 136.646 8.12287C134.827 6.27745 132.374 5.61698 130.01 5.21876C127.143 4.73312 124.235 4.51944 121.335 4.58743C118.866 4.64571 116.243 4.97594 114.293 6.79222C112.344 8.6085 111.491 12.3868 113.164 14.5624C114.423 16.2136 116.511 16.3593 118.379 16.3981C122.887 16.4952 127.403 16.5827 131.911 16.6798C133.259 16.7089 134.713 16.7866 135.753 17.8065C137.077 19.1177 137.215 21.439 137.247 23.4884C137.483 37.2319 137.719 50.9754 137.954 64.7286C138.019 68.4875 138.092 72.3143 139.116 75.8594C141.699 84.8049 149.618 90.0012 153.363 98.3444C156.189 104.648 156.376 112.098 156.498 119.246C157.05 152.687 157.611 186.128 158.163 219.569C158.204 221.832 158.196 224.28 157.107 226.135C155.848 228.291 153.501 229.039 151.34 229.563C134.267 233.672 116.389 232.934 99.5914 227.427C98.836 227.174 98.0237 226.883 97.5445 226.145C97.0409 225.377 97.0084 224.328 96.9922 223.357C96.5942 196.501 96.2124 169.646 95.8469 142.79C95.8307 141.576 95.8631 140.216 96.5779 139.352C97.3008 138.487 98.438 138.439 99.4614 138.448C116.884 138.662 134.307 138.885 151.73 139.099C152.672 139.099 153.696 139.157 154.402 139.886C155.271 140.77 155.353 142.314 155.369 143.674C155.71 168.325 156.043 192.976 156.384 217.626C156.53 228.349 156.677 239.072 156.823 249.795C156.896 255.215 156.969 260.644 157.042 266.064C157.083 268.745 157.294 271.522 157.156 274.193C157.018 276.864 155.678 274.932 156.205 273.581C156.205 273.581 159.154 272.872 166.805 272.872C174.457 272.872 181.532 273.581 186.243 274.99C190.954 276.398 201.554 282.741 206.858 283.44C212.162 284.139 231.599 285.557 238.666 285.557C244.562 285.557 250.476 285.276 256.348 284.625C262.026 283.984 271.099 283.955 272.764 275.67C273.008 274.446 273.048 273.135 272.699 271.95C271.952 269.405 269.669 268.045 267.533 267.2C261.279 264.714 254.082 263.733 247.503 263.733C243.092 263.733 238.674 264.014 234.271 264.384C229.122 264.821 223.639 265.025 218.66 266.753C215.857 267.725 213.161 269.347 211.13 271.853C210.732 272.348 210.35 272.882 210.107 273.513C209.294 275.631 210.35 278.273 212.024 279.448C213.697 280.623 215.792 280.614 217.701 280.157C222.364 279.03 225.743 275.32 228.951 271.377C232.232 267.346 235.083 262.392 235.725 256.691C236.903 246.124 236.903 224.998 236.903 220.064C236.903 215.13 236.903 190.479 233.954 186.254C230.405 181.155 225.101 178.29 220.422 174.968C215.744 171.646 211.804 167.081 209.562 160.914C207.377 154.911 206.955 148.21 207.012 141.663C207.109 129.678 208.71 117.818 210.448 106.047C211.845 96.6058 212.779 86.9417 214.866 77.6757C215.264 75.8983 215.135 73.6061 216.515 72.4211C217.246 71.7995 218.14 71.5276 219.017 71.3139C220.666 70.8962 222.339 70.6049 224.012 70.43C225.564 70.2746 227.188 70.2261 228.626 70.9351C229.325 71.275 229.974 71.8092 230.397 72.5474C231.055 73.7032 231.087 75.199 230.965 76.5782C228.813 100.569 228.236 124.86 226.993 148.928L226.766 153.328C226.734 153.959 226.66 154.669 226.238 155.047C225.946 155.3 225.572 155.319 225.215 155.339C224.435 155.368 218.684 156.203 218.635 154.552C218.375 144.927 219.529 134.942 220.081 125.356C220.966 109.98 222.201 94.5759 223.98 79.3075C224.004 79.0646 224.037 78.8218 224.061 78.579C224.305 76.5199 224.557 74.4608 225.052 72.4697C225.125 72.1589 225.223 71.8287 225.442 71.6344C225.637 71.4693 225.889 71.4304 226.124 71.411C235.928 70.4689 245.781 70.5757 255.617 70.8962C256.933 70.9351 258.346 71.0322 259.386 71.9938C260.369 72.9165 260.799 74.422 261.165 75.8497C265.827 93.9154 269.783 113.681 269.287 132.698C269.287 132.698 269.97 138.137 243.417 138.934C243.417 138.934 210.984 139.74 209.205 134.806C208.913 133.99 221.624 130.901 222.778 130.736C227.976 129.979 233.215 129.882 238.446 129.823C244.408 129.765 250.378 129.755 256.324 130.367C260.385 130.785 267.216 131.154 268.703 136.914C268.703 136.914 271.651 147.481 269.296 157.34C269.296 157.34 267.525 167.198 259.281 173.54C255.91 176.134 252.384 178.455 249.079 181.175C245.773 183.894 244.368 186.439 243.807 191.111C242.378 202.989 242.743 215.014 242.507 226.97C242.321 236.761 240.98 248.367 244.343 257.662C244.571 258.284 244.822 258.896 245.139 259.469C249.85 267.919 255.739 271.445 255.739 271.445C255.739 271.445 268.695 279.195 287.547 278.486C306.399 277.777 360 277.777 360 277.777" stroke="white" stroke-width="2" stroke-miterlimit="10"/>
</svg>
